 <svg version="1.0" xmlns="http://www.w3.org/2000/svg" width="320pt" height="51pt" viewBox="0 0 520.000000 81.000000" preserveAspectRatio="xMidYMid meet">
    <g transform="translate(0.000000,81.000000) scale(0.100000,-0.100000)" stroke="none">
        <path fill="#000000"  d="M98 715 c-5 -5 -8 -145 -8 -312 l0 -303 75 0 75 0 0 104 0 103 84 5 c106 7 166 34 204 91 23 34 27 51 27 112 0 61 -4 78 -27 112 -45 69 -93 85 -271 90 -84 3 -155 2 -159 -2z m290 -151 c25 -28 27 -51 11 -88 -14 -29 -55 -46 -115 -46 l-44 0 0 78 c0 43 2 81 5 84 3 2 31 3 62 1 47 -2 62 -8 81 -29z"/>
        <path fill="#000000"  d="M630 422 c0 -175 2 -321 4 -323 2 -2 36 -3 75 -1 l71 4 0 136 c0 110 3 144 18 172 24 49 63 66 114 51 58 -18 68 -49 68 -221 l0 -140 76 0 76 0 -4 177 c-3 168 -4 181 -28 223 -30 53 -93 90 -155 90 -49 0 -119 -31 -137 -59 -7 -12 -16 -21 -20 -21 -5 0 -8 52 -8 115 l0 115 -75 0 -75 0 0 -318z"/>
        <path fill="#000000"  d="M1380 581 c-69 -21 -122 -65 -156 -131 -25 -48 -25 -171 0 -220 59 -114 186 -165 318 -126 220 64 223 406 5 471 -54 16 -125 18 -167 6z m23 -109 c30 -31 35 -67 12 -76 -27 -10 -17 -52 20 -85 41 -36 60 -39 77 -11 7 11 20 20 29 20 22 0 69 -52 69 -77 0 -24 -43 -63 -69 -63 -59 1 -179 98 -220 178 -27 53 -27 90 1 119 28 30 48 29 81 -5z"/>
        <path fill="#000000"  d="M2030 579 c-14 -6 -40 -24 -57 -42 l-33 -31 0 37 0 37 -75 0 -75 0 0 -240 0 -240 75 0 75 0 0 145 c0 167 9 196 64 215 43 14 81 4 106 -27 18 -23 20 -41 20 -179 l0 -154 75 0 75 0 0 170 c0 186 -7 220 -57 273 -42 43 -133 60  -193 36z"/>
        <path fill="#000000"  d="M2505 575 c-90 -35 -144 -119 -145 -224 0 -91 17 -139 70 -192 85 -85 228 -93 329 -18 25 18 81 103 81 123 0 3 -34 6 -76 6 -72 0 -78 -2 -104 -30 -47 -51 -119 -38 -146 25 -8 19 -14 37 -14 40 0 3 76 5 169 5 193 0 188 -3 170 94 -12 66 -53 125 -108 155 -56 31 -166 38 -226 16z m159 -126 c15 -12 26 -30 26 -45 0 -24 -1 -24 -94 -24 l-95 0 11 30 c5 17 20 37 31 45 31 22 90 19 121 -6z"/>
        <path fill="#275DBA" d="M2930 404 l0 -306 188 4 c167 3 191 5 222 23 46 28 72 75 73 134 1 60 -26 109 -77 137 -33 19 -36 23 -19 28 11 3 32 20 48 36 39 41 47 128 15 178 -37 60 -81 72 -277 72 l-173 0 0 -306z m290 183 c20 -10 26 -21 28 -54 4 -57 -20 -73 -110 -73 l-68 0 0 70 0 70 63 0 c34 0 73 -6 87 -13z m25 -252 c68 -67 -7 -135 -135 -123 l-35 3 -3 73 -3 72 76 0 c67 0 79 -3 100 -25z"/>
        <path fill="#275DBA" d="M4620 420 l0 -320 75 0 74 0 3 101 3 101 70 -101 70 -101 89 0 89 0 -20 23 c-75 84 -173 207 -173 217 0 6 37 57 83 113 46 56 87 108 91 115 5 9 -12 12 -77 12 l-84 0 -69 -95 -69 -95 -3 175 -2 175 -75 0 -75 0 0 -320z"/>
        <path fill="#275DBA"  d="M3632 572 c-103 -37 -152 -112 -152 -234 0 -59 5 -84 23 -119 75 -142 298 -171 408 -52 48 51 63 92 63 173 0 81 -15 122 -63 173 -63 69 -182 93 -279 59z m167 -138 c33 -42 29 -124 -6 -164 -70 -78 -175 0 -156 115 9 53 35 75 93 75 41 0 52 -4 69 -26z m-95 -215 c19 -9 32 -9 55 1 35 14 88 1 115 -29 16 -18 15 -20 -35 -45 -80 -40 -198 -33 -256 16 -17 14 -1 36 42 54 38 16 48 17 79 3z"/>
        <path fill="#275DBA"  d="M4190 571 c-97 -34 -150 -116 -150 -231 0 -106 42 -180 127 -221 66 -32 180 -33 239 -1 110 57 157 179 119 308 -38 128 -193 195 -335 145z m167 -133 c61 -68 17 -198 -67 -200 -25 -1 -40 6 -62 31 -24 27 -28 40 -28 88 0 76 24 103 90 103 36 0 51 -5 67 -22z m-62 -219 c17 1 45 2 63 3 33 1 86 -29 84 -47 -2 -18 -75 -49 -128 -53 -67 -6 -110 3 -152 28 -29 18 -32 23 -20 37 20 25 70 44 98 37 14 -3 39 -5 55 -5z"/>
    </g>
</svg>  